<?xml version="1.0" encoding="utf-8"?>
<!-- Generator: Adobe Illustrator 22.1.0, SVG Export Plug-In . SVG Version: 6.00 Build 0)  -->
<svg version="1.1" xmlns="http://www.w3.org/2000/svg" xmlns:xlink="http://www.w3.org/1999/xlink" x="0px" y="0px"
	 viewBox="0 0 1200 600" style="enable-background:new 0 0 1200 600;" xml:space="preserve">
<style type="text/css">
	.st0{fill:#3CAAEA;}
	.st1{font-family:'MyriadPro-Regular';}
	.st2{font-size:144.3628px;}
	.st3{fill:#59A8E3;}
	.st4{fill:none;}
</style>
<g id="Ebene_2_xA0_Bild_1_">
</g>
<g id="Ebene_1_xA0_Bild_1_">
</g>
<g id="T2Ticket_x0D_">
	<text transform="matrix(1 0 0 1 601.3491 348.8145)"><tspan x="0" y="0" class="st0 st1 st2">T</tspan><tspan x="71.7" y="0" class="st3 st1 st2">2</tspan><tspan x="145.8" y="0" class="st0 st1 st2">Ticket</tspan></text>
	<g>
		<path class="st3" d="M543.3,219.9h-17.4L504.2,90.5c-1.1-5.4-6.5-9.8-13-8.7l-450,76.1c-3.3,0-5.4,2.2-6.5,4.3
			c-2.2,2.2-2.2,5.4-2.2,7.6l41.3,246.8c0,2.2,1.1,3.3,2.2,4.3v59.8c0,6.5,4.3,10.9,10.9,10.9h456.6c6.5,0,10.9-4.3,10.9-10.9v-250
			C554.2,225.3,549.9,219.9,543.3,219.9L543.3,219.9z M504.2,219.9H168.3l-9.8-59.8l326.1-54.3L504.2,219.9z M56.4,177.5l80.4-13
			l9.8,56.5H86.8c-6.5,0-10.9,4.3-10.9,10.9v66.3L56.4,177.5z M97.7,241.6h81.5v228.3H97.7V241.6z M532.5,471H200.9V242.7h331.6V471
			z"/>
		<path class="st3" d="M258.5,300.3h228.3c6.5,0,10.9-4.3,10.9-10.9s-4.3-10.9-10.9-10.9H258.5c-6.5,0-10.9,4.3-10.9,10.9
			C247.7,294.9,252,300.3,258.5,300.3z"/>
		<path class="st3" d="M258.5,371h228.3c6.5,0,10.9-4.3,10.9-10.9s-4.3-10.9-10.9-10.9H258.5c-6.5,0-10.9,4.3-10.9,10.9
			C247.7,365.5,252,371,258.5,371z"/>
		<path class="st4" d="M315.1,431.8h-56.5c-6.5,0-10.9,4.3-10.9,10.9s4.3,10.9,10.9,10.9h56.5c6.5,0,10.9-4.3,10.9-10.9
			S320.5,431.8,315.1,431.8z"/>
		<path class="st3" d="M347.8,432.9h-46.8c-6.5,0-10.9,4.3-10.9,10.9c0,6.5,4.3,10.9,10.9,10.9h46.8c6.5,0,10.9-4.3,10.9-10.9
			C358.7,437.2,354.4,432.9,347.8,432.9z"/>
		<path class="st0" d="M221.6,207.9h2.2l226.1-38.1c5.4-1.1,9.8-6.5,8.7-13c-1.1-5.4-6.5-9.8-13-8.7l-226.1,38.1
			c-5.4,1.1-9.8,6.5-8.7,13C211.8,204.6,217.2,207.9,221.6,207.9L221.6,207.9z"/>
	</g>
	<path class="st3" d="M788.1,295.8L788.1,295.8c-6.5,0-10.9,4.3-10.9,10.9"/>
</g>
</svg>
