<?xml version="1.0" encoding="utf-8"?>
<!-- Generator: Adobe Illustrator 22.1.0, SVG Export Plug-In . SVG Version: 6.00 Build 0)  -->
<svg version="1.1" id="Ebene_1" xmlns="http://www.w3.org/2000/svg" xmlns:xlink="http://www.w3.org/1999/xlink" x="0px" y="0px"
	 viewBox="0 0 1200 600" style="enable-background:new 0 0 1200 600;" xml:space="preserve">
<style type="text/css">
	.st0{fill:#3CAAEA;}
	.st1{fill:#FFBE00;}
	.st2{font-family:'MyriadPro-Regular';}
	.st3{font-size:162.4774px;}
	.st4{fill:#EAAA3C;}
</style>
<g id="Ebene_2_xA0_Bild_1_">
</g>
<g id="Ebene_1_xA0_Bild_1_">
</g>
<g>
	<path class="st0" d="M568.3,222.3H550L527.2,89.6c-1.1-5.6-6.8-10-13.7-8.9l-472.9,78c-3.4,0-5.7,2.2-6.8,4.5
		c-2.3,2.2-2.3,5.6-2.3,7.8l43.4,253c0,2.2,1.1,3.3,2.3,4.5v61.3c0,6.7,4.6,11.1,11.4,11.1h479.8c6.8,0,11.4-4.5,11.4-11.1V233.4
		C579.7,227.8,575.2,222.3,568.3,222.3L568.3,222.3z M527.2,222.3h-353L164,161l342.7-55.7L527.2,222.3z M56.6,178.8l84.5-13.4
		l10.3,58H88.5c-6.8,0-11.4,4.5-11.4,11.1v68L56.6,178.8z M100,244.6h85.7v234.1H100V244.6z M556.9,479.8H208.5V245.7h348.4V479.8z"
		/>
	<path class="st1" d="M269,304.8h239.9c6.8,0,11.4-4.5,11.4-11.1c0-6.7-4.6-11.1-11.4-11.1H269c-6.8,0-11.4,4.5-11.4,11.1
		C257.6,299.2,262.2,304.8,269,304.8z"/>
	<path class="st1" d="M269,377.2h239.9c6.8,0,11.4-4.5,11.4-11.1c0-6.7-4.6-11.1-11.4-11.1H269c-6.8,0-11.4,4.5-11.4,11.1
		C257.6,371.6,262.2,377.2,269,377.2z"/>
	<path class="st1" d="M328.4,439.6H269c-6.8,0-11.4,4.5-11.4,11.1s4.6,11.1,11.4,11.1h59.4c6.8,0,11.4-4.5,11.4-11.1
		S334.1,439.6,328.4,439.6z"/>
	<path class="st1" d="M508.9,439.6h-49.1c-6.8,0-11.4,4.5-11.4,11.1s4.6,11.1,11.4,11.1h49.1c6.8,0,11.4-4.5,11.4-11.1
		S515.8,439.6,508.9,439.6z"/>
	<path class="st1" d="M230.2,210h2.3l237.6-39c5.7-1.1,10.3-6.7,9.1-13.4c-1.1-5.6-6.8-10-13.7-8.9l-237.6,39
		c-5.7,1.1-10.3,6.7-9.1,13.4C219.9,206.7,225.6,210,230.2,210L230.2,210z"/>
</g>
<text transform="matrix(1 0 0 1 611.2716 354.9429)"><tspan x="0" y="0" class="st0 st2 st3">T</tspan><tspan x="80.8" y="0" class="st4 st2 st3">2</tspan><tspan x="164.1" y="0" class="st0 st2 st3">Ticket</tspan></text>
</svg>
